<?xml version="1.0" encoding="UTF-8" standalone="no"?><!DOCTYPE svg PUBLIC "-//W3C//DTD SVG 1.1//EN" "http://www.w3.org/Graphics/SVG/1.1/DTD/svg11.dtd">
<svg width="100%" height="100%" viewBox="0 0 4167 2084" version="1.1"
     xmlns="http://www.w3.org/2000/svg"
     xmlns:xlink="http://www.w3.org/1999/xlink" xml:space="preserve"
     xmlns:serif="http://www.serif.com/" style="fill-rule:evenodd;clip-rule:evenodd;stroke-linecap:round;stroke-linejoin:round;stroke-miterlimit:1.5;">
    <style>
        :root{
            --color1: #00ffca;
            --color2: #00ffca;
        }
        @media (prefers-color-scheme: dark){
            :root{
                --color1: #fff;
            }
        }
        g:nth-of-type(1){
            fill: var(--color1);
            fill-rule:nonzero;
        }
        g:nth-of-type(2){
            fill: var(--color2);
            fill-rule:nonzero;
        }
    </style>
    <g>
        <path d="M725.456,152.845c49.333,-0 90.833,6.5 124.5,19.5c33.666,13 60.166,31.5 79.5,55.5c19.333,24 32,53 38,87c6,34 5.666,72 -1,114c-4,25.333 -8.5,50 -13.5,74c-5,24 -11.167,48.667 -18.5,74c-11.334,42 -27.167,80 -47.5,114c-20.334,34 -45,63 -74,87c-29,24 -62.667,42.5 -101,55.5c-38.334,13 -81.5,19.5 -129.5,19.5l-252,-0c-7.334,-0 -13.167,-2.667 -17.5,-8c-4.334,-5.333 -5.834,-11.667 -4.5,-19l138,-646c1.333,-7.333 5.166,-13.667 11.5,-19c6.333,-5.333 13.166,-8 20.5,-8l247,-0Zm106,276c3.333,-21.333 3.5,-41.167 0.5,-59.5c-3,-18.333 -10,-34.333 -21,-48c-11,-13.667 -26,-24.333 -45,-32c-19,-7.667 -42.834,-11.5 -71.5,-11.5l-134,-0l-96,450l139,-0c27.333,-0 51.833,-3.833 73.5,-11.5c21.666,-7.667 40.666,-18.167 57,-31.5c16.333,-13.333 29.833,-29.333 40.5,-48c10.666,-18.667 19,-38.667 25,-60c7.333,-25.333 13.5,-50 18.5,-74c5,-24 9.5,-48.667 13.5,-74Z"/>
        <path d="M1025.46,588.845c8,-37.333 19.666,-72.167 35,-104.5c15.333,-32.333 34.833,-60.5 58.5,-84.5c23.666,-24 51.833,-42.833 84.5,-56.5c32.666,-13.667 70.333,-20.5 113,-20.5c34.666,-0 66.166,6.833 94.5,20.5c28.333,13.667 51.666,32 70,55c18.333,23 31,50 38,81c7,31 6.833,63.5 -0.5,97.5l-9,45c-2,7.333 -6.167,13.667 -12.5,19c-6.334,5.333 -13.167,8 -20.5,8l-334,-0c-3.334,15.333 -3,28.833 1,40.5c4,11.667 10.5,21.5 19.5,29.5c9,8 20,14 33,18c13,4 26.833,6 41.5,6c21.333,-0 39.166,-2.167 53.5,-6.5c14.333,-4.333 26.5,-9.833 36.5,-16.5c8,-5.333 14.666,-9 20,-11c5.333,-2 12,-3 20,-3l80,-0c7.333,-0 13.166,2.667 17.5,8c4.333,5.333 5.5,11.667 3.5,19c-2.667,9.333 -9.5,21.333 -20.5,36c-11,14.667 -26.667,29 -47,43c-20.334,14 -45.334,26 -75,36c-29.667,10 -64.5,15 -104.5,15c-32.667,-0 -62.834,-6.833 -90.5,-20.5c-27.667,-13.667 -50.667,-32.5 -69,-56.5c-18.334,-24 -31.167,-52.833 -38.5,-86.5c-7.334,-33.667 -6.667,-70.5 2,-110.5Zm276,-146c-19.334,-0 -36.5,2.833 -51.5,8.5c-15,5.667 -28.167,13 -39.5,22c-11.334,9 -20.667,19 -28,30c-7.334,11 -12.667,21.5 -16,31.5l226,-0c0.666,-10 0.333,-20.5 -1,-31.5c-1.334,-11 -5.167,-21 -11.5,-30c-6.334,-9 -15.667,-16.333 -28,-22c-12.334,-5.667 -29.167,-8.5 -50.5,-8.5Z"/>
        <path d="M2052.46,630.845c3.333,-8.667 8.166,-15.167 14.5,-19.5c6.333,-4.333 12.833,-6.5 19.5,-6.5l81,-0c7.333,-0 13.333,2.5 18,7.5c4.666,5 5.666,11.5 3,19.5c-7.334,27.333 -18.834,54.667 -34.5,82c-15.667,27.333 -36.834,52 -63.5,74c-26.667,22 -59.667,40 -99,54c-39.334,14 -86,21 -140,21c-43.334,-0 -81.667,-6.833 -115,-20.5c-33.334,-13.667 -60.667,-32.667 -82,-57c-21.334,-24.333 -36.167,-53.5 -44.5,-87.5c-8.334,-34 -9.5,-71 -3.5,-111c4,-25.333 9.166,-53.333 15.5,-84c6.333,-30.667 13.166,-58.667 20.5,-84c10.666,-40 25.5,-77 44.5,-111c19,-34 42.5,-63.167 70.5,-87.5c28,-24.333 60.666,-43.333 98,-57c37.333,-13.667 80.333,-20.5 129,-20.5c49.333,-0 91.333,7 126,21c34.666,14 62.5,32 83.5,54c21,22 35.5,46.833 43.5,74.5c8,27.667 10,54.833 6,81.5c-1.334,8 -5.167,14.5 -11.5,19.5c-6.334,5 -13.167,7.5 -20.5,7.5l-81,-0c-6.667,-0 -12.667,-2.167 -18,-6.5c-5.334,-4.333 -7.667,-10.833 -7,-19.5c0.666,-13.333 -1.167,-26.333 -5.5,-39c-4.334,-12.667 -11.834,-24 -22.5,-34c-10.667,-10 -25,-18.167 -43,-24.5c-18,-6.333 -40,-9.5 -66,-9.5c-26,-0 -49.5,4 -70.5,12c-21,8 -39.5,18.667 -55.5,32c-16,13.333 -29.334,29.333 -40,48c-10.667,18.667 -19,38.333 -25,59c-7.334,25.333 -14.167,53.333 -20.5,84c-6.334,30.667 -11.5,58.667 -15.5,84c-3.334,21.333 -3.5,41.167 -0.5,59.5c3,18.333 9.666,34.167 20,47.5c10.333,13.333 24.333,24 42,32c17.666,8 39.5,12 65.5,12c26,-0 49.333,-3.167 70,-9.5c20.666,-6.333 38.5,-14.5 53.5,-24.5c15,-10 27.5,-21.333 37.5,-34c10,-12.667 17.666,-25.667 23,-39Z"/>
        <path d="M2276.46,588.845c8,-37.333 19.666,-72.167 35,-104.5c15.333,-32.333 34.833,-60.5 58.5,-84.5c23.666,-24 51.833,-42.833 84.5,-56.5c32.666,-13.667 70.333,-20.5 113,-20.5c34.666,-0 66.166,6.833 94.5,20.5c28.333,13.667 51.666,32 70,55c18.333,23 31,50 38,81c7,31 6.833,63.5 -0.5,97.5l-9,45c-2,7.333 -6.167,13.667 -12.5,19c-6.334,5.333 -13.167,8 -20.5,8l-334,-0c-3.334,15.333 -3,28.833 1,40.5c4,11.667 10.5,21.5 19.5,29.5c9,8 20,14 33,18c13,4 26.833,6 41.5,6c21.333,-0 39.166,-2.167 53.5,-6.5c14.333,-4.333 26.5,-9.833 36.5,-16.5c8,-5.333 14.666,-9 20,-11c5.333,-2 12,-3 20,-3l80,-0c7.333,-0 13.166,2.667 17.5,8c4.333,5.333 5.5,11.667 3.5,19c-2.667,9.333 -9.5,21.333 -20.5,36c-11,14.667 -26.667,29 -47,43c-20.334,14 -45.334,26 -75,36c-29.667,10 -64.5,15 -104.5,15c-32.667,-0 -62.834,-6.833 -90.5,-20.5c-27.667,-13.667 -50.667,-32.5 -69,-56.5c-18.334,-24 -31.167,-52.833 -38.5,-86.5c-7.334,-33.667 -6.667,-70.5 2,-110.5Zm276,-146c-19.334,-0 -36.5,2.833 -51.5,8.5c-15,5.667 -28.167,13 -39.5,22c-11.334,9 -20.667,19 -28,30c-7.334,11 -12.667,21.5 -16,31.5l226,-0c0.666,-10 0.333,-20.5 -1,-31.5c-1.334,-11 -5.167,-21 -11.5,-30c-6.334,-9 -15.667,-16.333 -28,-22c-12.334,-5.667 -29.167,-8.5 -50.5,-8.5Z"/>
        <path d="M3311.46,825.845c-1.334,7.333 -5.167,13.667 -11.5,19c-6.334,5.333 -13.167,8 -20.5,8l-76,-0c-7.334,-0 -13.167,-2.667 -17.5,-8c-4.334,-5.333 -5.834,-11.667 -4.5,-19l54,-254c8.666,-40 6.166,-72 -7.5,-96c-13.667,-24 -39.834,-36 -78.5,-36c-35.334,-0 -65.667,12 -91,36c-25.334,24 -42.334,56 -51,96l-54,254c-1.334,7.333 -5.167,13.667 -11.5,19c-6.334,5.333 -13.167,8 -20.5,8l-76,-0c-7.334,-0 -13.167,-2.667 -17.5,-8c-4.334,-5.333 -5.834,-11.667 -4.5,-19l99,-466c1.333,-7.333 5.333,-13.667 12,-19c6.666,-5.333 13.666,-8 21,-8l76,-0c7.333,-0 13,2.667 17,8c4,5.333 5.333,11.667 4,19l-5,23c17.333,-18.667 38.166,-33.333 62.5,-44c24.333,-10.667 52.5,-16 84.5,-16c35.333,-0 65.666,6.333 91,19c25.333,12.667 45.166,29.667 59.5,51c14.333,21.333 23.5,46.167 27.5,74.5c4,28.333 2.666,58.167 -4,89.5l-57,269Z"/>
        <path d="M3638.46,664.845c-4,20.667 -3.5,37.167 1.5,49.5c5,12.333 19.166,18.5 42.5,18.5l81,-0c7.333,-0 13,2.667 17,8c4,5.333 5.333,11.667 4,19l-14,66c-1.334,7.333 -5.167,13.667 -11.5,19c-6.334,5.333 -13.167,8 -20.5,8l-64,-0c-62.667,-0 -109.167,-16.167 -139.5,-48.5c-30.334,-32.333 -39.167,-77.833 -26.5,-136.5l46,-215l-66,-0c-7.334,-0 -13.167,-2.667 -17.5,-8c-4.334,-5.333 -5.834,-11.667 -4.5,-19l14,-66c1.333,-7.333 5.333,-13.667 12,-19c6.666,-5.333 13.666,-8 21,-8l66,-0l35,-163c1.333,-7.333 5.166,-13.667 11.5,-19c6.333,-5.333 13.166,-8 20.5,-8l76,-0c7.333,-0 13.166,2.667 17.5,8c4.333,5.333 5.833,11.667 4.5,19l-35,163l129,-0c7.333,-0 13,2.667 17,8c4,5.333 5.333,11.667 4,19l-14,66c-1.334,7.333 -5.167,13.667 -11.5,19c-6.334,5.333 -13.167,8 -20.5,8l-129,-0l-46,212Z"/>
    </g>
    <g>
        <path d="M594.23,1678.8c-5.532,-0 -9.68,-1.152 -12.446,-3.457c-2.766,-2.305 -4.84,-5.762 -6.223,-10.372l-80.209,-266.901l-80.9,381.682c-2.305,10.142 -8.298,15.212 -17.978,15.212l-13.138,0c-5.07,0 -8.758,-1.383 -11.063,-4.149c-2.305,-2.765 -2.996,-6.453 -2.074,-11.063l96.112,-452.902c2.305,-10.602 8.758,-15.903 19.361,-15.903l17.977,-0c4.61,-0 7.837,1.152 9.681,3.457c1.844,2.305 2.996,4.149 3.457,5.531l91.963,305.623l222.649,-305.623c0.921,-1.382 2.65,-3.226 5.185,-5.531c2.536,-2.305 6.108,-3.457 10.718,-3.457l17.286,-0c10.603,-0 14.751,5.301 12.446,15.903l-96.112,452.902c-2.304,10.142 -8.528,15.212 -18.669,15.212l-13.137,0c-4.61,0 -8.067,-1.383 -10.372,-4.149c-2.305,-2.765 -2.997,-6.453 -2.075,-11.063l77.443,-363.704l-181.161,248.923c-3.226,4.149 -6.684,7.491 -10.372,10.026c-3.687,2.535 -8.297,3.803 -13.829,3.803l-14.52,-0Z"/>
        <path d="M924.745,1587.53c5.992,-23.509 14.751,-45.06 26.275,-64.651c11.524,-19.591 25.238,-36.301 41.142,-50.13c15.903,-13.829 33.535,-24.662 52.896,-32.499c19.36,-7.836 39.874,-11.754 61.539,-11.754c49.785,-0 84.818,15.903 105.101,47.71c20.283,31.807 24.892,75.368 13.829,130.685l-2.074,10.372c-0.922,4.609 -3.227,8.297 -6.915,11.063c-3.687,2.766 -7.836,4.149 -12.446,4.149l-246.157,-0c-3.227,17.055 -4.61,33.42 -4.149,49.093c0.461,15.673 3.457,29.387 8.989,41.141c5.531,11.755 14.175,21.205 25.929,28.35c11.755,7.145 27.313,10.717 46.673,10.717c17.978,0 33.421,-1.843 46.328,-5.531c12.907,-3.688 23.624,-7.952 32.152,-12.792c8.528,-4.84 15.328,-9.796 20.398,-14.866c5.071,-5.071 8.989,-8.989 11.755,-11.755c5.071,-5.993 8.874,-9.565 11.409,-10.718c2.535,-1.152 6.338,-1.728 11.409,-1.728l11.063,-0c4.149,-0 7.491,1.267 10.026,3.803c2.536,2.535 3.112,5.877 1.729,10.026c-1.844,6.453 -6.223,14.52 -13.138,24.201c-6.914,9.68 -16.825,18.899 -29.732,27.658c-12.907,8.758 -28.696,16.249 -47.365,22.472c-18.669,6.223 -40.68,9.335 -66.034,9.335c-20.743,-0 -39.528,-3.919 -56.353,-11.755c-16.825,-7.836 -30.655,-18.669 -41.487,-32.498c-10.833,-13.829 -18.554,-30.54 -23.164,-50.131c-4.61,-19.591 -5.071,-41.141 -1.383,-64.651c0.922,-6.914 2.651,-16.134 5.186,-27.658c2.535,-11.524 4.725,-20.743 6.569,-27.658Zm261.369,6.223c4.149,-17.517 5.762,-33.881 4.84,-49.093c-0.921,-15.212 -4.609,-28.465 -11.063,-39.759c-6.453,-11.293 -15.788,-20.167 -28.004,-26.621c-12.215,-6.453 -27.312,-9.68 -45.29,-9.68c-17.517,0 -33.881,3.227 -49.093,9.68c-15.212,6.454 -29.041,15.443 -41.487,26.967c-12.446,11.524 -22.934,24.892 -31.461,40.104c-8.528,15.212 -14.636,31.346 -18.324,48.402l219.882,0Z"/>
        <path d="M1504.18,1698.85c1.844,-8.758 1.498,-16.364 -1.037,-22.818c-2.535,-6.453 -7.721,-12.331 -15.558,-17.632c-7.836,-5.301 -18.669,-10.372 -32.498,-15.212c-13.829,-4.84 -31.116,-9.796 -51.859,-14.866c-19.361,-4.61 -35.034,-10.602 -47.019,-17.978c-11.985,-7.375 -21.089,-15.558 -27.312,-24.547c-6.224,-8.988 -10.027,-18.554 -11.409,-28.695c-1.383,-10.141 -0.922,-20.513 1.382,-31.115c2.766,-11.986 7.376,-23.855 13.83,-35.61c6.453,-11.755 15.327,-22.242 26.62,-31.461c11.294,-9.22 25.123,-16.595 41.488,-22.127c16.364,-5.531 35.84,-8.297 58.428,-8.297c22.587,-0 41.372,2.996 56.353,8.989c14.982,5.992 26.967,13.137 35.956,21.435c8.989,8.297 15.096,16.71 18.323,25.238c3.227,8.528 4.61,15.327 4.149,20.398c-0.922,4.609 -3.227,8.297 -6.915,11.063c-3.687,2.766 -7.606,4.149 -11.754,4.149l-9.681,-0c-6.453,-0 -10.833,-2.997 -13.137,-8.989c-2.305,-5.532 -5.186,-10.833 -8.644,-15.904c-3.457,-5.07 -7.951,-9.565 -13.483,-13.483c-5.532,-3.918 -12.446,-7.03 -20.743,-9.335c-8.298,-2.305 -18.439,-3.457 -30.424,-3.457c-27.659,0 -50.246,5.647 -67.763,16.941c-17.517,11.293 -28.119,25.699 -31.807,43.215c-1.383,6.915 -1.383,13.484 0,19.707c1.383,6.223 5.186,12.1 11.409,17.632c6.223,5.532 15.673,10.948 28.35,16.249c12.676,5.301 29.387,10.487 50.13,15.558c21.205,5.071 38.606,11.063 52.205,17.978c13.599,6.914 24.086,14.866 31.461,23.855c7.376,8.989 11.985,18.784 13.829,29.387c1.844,10.602 1.383,21.896 -1.383,33.881c-2.766,13.829 -7.836,26.736 -15.212,38.721c-7.375,11.985 -17.286,22.472 -29.732,31.461c-12.446,8.989 -27.774,16.019 -45.982,21.09c-18.208,5.07 -39.298,7.606 -63.268,7.606c-24.431,-0 -44.714,-3.227 -60.848,-9.681c-16.134,-6.453 -29.156,-14.059 -39.067,-22.818c-9.911,-8.758 -16.825,-17.632 -20.744,-26.621c-3.918,-8.988 -5.416,-15.788 -4.494,-20.397c0.922,-5.071 3.342,-8.874 7.26,-11.409c3.918,-2.536 7.491,-3.803 10.718,-3.803l9.68,-0c2.766,-0 5.186,0.461 7.26,1.382c2.075,0.922 4.264,3.458 6.569,7.606c5.993,11.986 15.327,22.588 28.004,31.807c12.677,9.22 31.231,13.829 55.662,13.829c13.829,0 27.082,-1.383 39.759,-4.148c12.676,-2.766 23.97,-6.684 33.881,-11.755c9.911,-5.071 18.323,-11.524 25.238,-19.361c6.914,-7.836 11.524,-17.056 13.829,-27.658Z"/>
        <path d="M1843,1698.85c1.844,-8.758 1.499,-16.364 -1.037,-22.818c-2.535,-6.453 -7.721,-12.331 -15.558,-17.632c-7.836,-5.301 -18.669,-10.372 -32.498,-15.212c-13.829,-4.84 -31.115,-9.796 -51.859,-14.866c-19.361,-4.61 -35.034,-10.602 -47.019,-17.978c-11.985,-7.375 -21.089,-15.558 -27.312,-24.547c-6.223,-8.988 -10.026,-18.554 -11.409,-28.695c-1.383,-10.141 -0.922,-20.513 1.383,-31.115c2.766,-11.986 7.375,-23.855 13.829,-35.61c6.453,-11.755 15.327,-22.242 26.621,-31.461c11.294,-9.22 25.123,-16.595 41.487,-22.127c16.364,-5.531 35.84,-8.297 58.428,-8.297c22.587,-0 41.372,2.996 56.353,8.989c14.982,5.992 26.967,13.137 35.956,21.435c8.989,8.297 15.097,16.71 18.323,25.238c3.227,8.528 4.61,15.327 4.149,20.398c-0.922,4.609 -3.227,8.297 -6.914,11.063c-3.688,2.766 -7.606,4.149 -11.755,4.149l-9.68,-0c-6.454,-0 -10.833,-2.997 -13.138,-8.989c-2.305,-5.532 -5.186,-10.833 -8.643,-15.904c-3.457,-5.07 -7.952,-9.565 -13.484,-13.483c-5.531,-3.918 -12.446,-7.03 -20.743,-9.335c-8.298,-2.305 -18.439,-3.457 -30.424,-3.457c-27.658,0 -50.246,5.647 -67.763,16.941c-17.516,11.293 -28.119,25.699 -31.806,43.215c-1.383,6.915 -1.383,13.484 -0,19.707c1.382,6.223 5.185,12.1 11.409,17.632c6.223,5.532 15.672,10.948 28.349,16.249c12.677,5.301 29.387,10.487 50.131,15.558c21.204,5.071 38.606,11.063 52.204,17.978c13.599,6.914 24.086,14.866 31.461,23.855c7.376,8.989 11.986,18.784 13.83,29.387c1.843,10.602 1.382,21.896 -1.383,33.881c-2.766,13.829 -7.837,26.736 -15.212,38.721c-7.376,11.985 -17.287,22.472 -29.733,31.461c-12.446,8.989 -27.773,16.019 -45.982,21.09c-18.208,5.07 -39.297,7.606 -63.268,7.606c-24.431,-0 -44.714,-3.227 -60.848,-9.681c-16.133,-6.453 -29.156,-14.059 -39.067,-22.818c-9.91,-8.758 -16.825,-17.632 -20.743,-26.621c-3.918,-8.988 -5.417,-15.788 -4.495,-20.397c0.922,-5.071 3.342,-8.874 7.261,-11.409c3.918,-2.536 7.49,-3.803 10.717,-3.803l9.68,-0c2.766,-0 5.186,0.461 7.261,1.382c2.074,0.922 4.264,3.458 6.569,7.606c5.992,11.986 15.327,22.588 28.003,31.807c12.677,9.22 31.231,13.829 55.662,13.829c13.829,0 27.082,-1.383 39.759,-4.148c12.677,-2.766 23.97,-6.684 33.881,-11.755c9.911,-5.071 18.324,-11.524 25.238,-19.361c6.915,-7.836 11.525,-17.056 13.829,-27.658Z"/>
        <path d="M1978.52,1587.53c5.993,-23.509 14.751,-45.06 26.276,-64.651c11.524,-19.591 25.238,-36.301 41.141,-50.13c15.904,-13.829 33.536,-24.662 52.896,-32.499c19.361,-7.836 39.874,-11.754 61.54,-11.754c49.784,-0 84.818,15.903 105.101,47.71c20.282,31.807 24.892,75.368 13.829,130.685l-2.075,10.372c-0.922,4.609 -3.226,8.297 -6.914,11.063c-3.688,2.766 -7.837,4.149 -12.446,4.149l-246.158,-0c-3.227,17.055 -4.61,33.42 -4.149,49.093c0.461,15.673 3.458,29.387 8.989,41.141c5.532,11.755 14.175,21.205 25.93,28.35c11.755,7.145 27.312,10.717 46.673,10.717c17.978,0 33.42,-1.843 46.327,-5.531c12.907,-3.688 23.625,-7.952 32.153,-12.792c8.528,-4.84 15.327,-9.796 20.398,-14.866c5.07,-5.071 8.989,-8.989 11.755,-11.755c5.07,-5.993 8.873,-9.565 11.409,-10.718c2.535,-1.152 6.338,-1.728 11.409,-1.728l11.063,-0c4.148,-0 7.491,1.267 10.026,3.803c2.535,2.535 3.111,5.877 1.728,10.026c-1.843,6.453 -6.223,14.52 -13.137,24.201c-6.915,9.68 -16.826,18.899 -29.733,27.658c-12.907,8.758 -28.695,16.249 -47.364,22.472c-18.669,6.223 -40.681,9.335 -66.034,9.335c-20.744,-0 -39.528,-3.919 -56.354,-11.755c-16.825,-7.836 -30.654,-18.669 -41.487,-32.498c-10.833,-13.829 -18.554,-30.54 -23.163,-50.131c-4.61,-19.591 -5.071,-41.141 -1.383,-64.651c0.922,-6.914 2.65,-16.134 5.186,-27.658c2.535,-11.524 4.724,-20.743 6.568,-27.658Zm261.37,6.223c4.149,-17.517 5.762,-33.881 4.84,-49.093c-0.922,-15.212 -4.61,-28.465 -11.063,-39.759c-6.454,-11.293 -15.788,-20.167 -28.004,-26.621c-12.216,-6.453 -27.313,-9.68 -45.29,-9.68c-17.517,0 -33.882,3.227 -49.094,9.68c-15.212,6.454 -29.041,15.443 -41.487,26.967c-12.446,11.524 -22.933,24.892 -31.461,40.104c-8.528,15.212 -14.636,31.346 -18.323,48.402l219.882,0Z"/>
        <path d="M2631.25,1779.75c-2.305,10.142 -8.298,15.212 -17.978,15.212l-11.755,0c-4.61,0 -8.067,-1.383 -10.372,-4.149c-2.304,-2.765 -2.996,-6.453 -2.074,-11.063l40.796,-192.915c4.148,-19.361 6.338,-36.417 6.569,-51.168c0.23,-14.751 -2.19,-27.082 -7.261,-36.993c-5.07,-9.911 -13.253,-17.401 -24.546,-22.472c-11.294,-5.071 -26.391,-7.606 -45.291,-7.606c-36.416,0 -67.531,10.372 -93.346,31.115c-25.814,20.744 -42.639,49.785 -50.476,87.124l-40.796,192.915c-2.305,10.142 -8.297,15.212 -17.977,15.212l-11.755,0c-4.61,0 -8.067,-1.383 -10.372,-4.149c-2.305,-2.765 -2.996,-6.453 -2.074,-11.063l69.836,-329.132c2.305,-10.141 8.528,-15.212 18.67,-15.212l11.754,0c10.142,0 14.06,5.071 11.755,15.212l-6.914,32.499c14.29,-16.134 31.576,-29.272 51.859,-39.413c20.282,-10.142 43.561,-15.212 69.836,-15.212c26.276,-0 47.826,3.918 64.651,11.754c16.826,7.837 29.733,18.67 38.722,32.499c8.989,13.829 14.175,30.193 15.558,49.093c1.382,18.9 -0.231,39.413 -4.841,61.539l-42.178,196.373Z"/>
        <path d="M2839.38,1906.98c16.134,-0 31.807,-1.729 47.019,-5.186c15.212,-3.457 29.272,-9.45 42.179,-17.978c12.907,-8.528 23.97,-19.937 33.19,-34.227c9.219,-14.29 16.134,-32.498 20.743,-54.625l9.681,-47.71c-14.751,15.673 -31.462,28.695 -50.131,39.067c-18.669,10.372 -42.294,15.558 -70.874,15.558c-27.658,-0 -50.015,-4.956 -67.071,-14.867c-17.056,-9.91 -30.078,-22.818 -39.067,-38.721c-8.989,-15.903 -14.29,-33.766 -15.903,-53.588c-1.614,-19.821 -0.577,-39.873 3.111,-60.156c0.922,-6.915 2.074,-13.368 3.457,-19.361c1.383,-5.992 2.997,-12.446 4.841,-19.361c5.531,-19.821 12.907,-39.758 22.126,-59.81c9.219,-20.052 20.974,-38.03 35.264,-53.934c14.29,-15.903 31.577,-28.81 51.859,-38.721c20.283,-9.911 44.253,-14.866 71.911,-14.866c28.581,-0 51.514,5.301 68.8,15.903c17.286,10.602 29.848,23.51 37.684,38.722l6.915,-31.807c0.922,-4.61 3.111,-8.413 6.569,-11.409c3.457,-2.997 7.49,-4.495 12.1,-4.495l11.063,0c4.61,0 8.067,1.498 10.372,4.495c2.305,2.996 2.996,6.799 2.075,11.409l-71.22,336.738c-4.61,22.126 -10.718,42.87 -18.324,62.23c-7.606,19.361 -18.323,36.187 -32.152,50.477c-13.829,14.29 -31.692,25.583 -53.588,33.881c-21.896,8.297 -49.439,12.446 -82.629,12.446c-28.58,0 -51.398,-4.033 -68.454,-12.1c-17.056,-8.067 -29.963,-17.517 -38.721,-28.35c-8.758,-10.833 -14.29,-22.011 -16.595,-33.536c-2.305,-11.524 -2.766,-20.743 -1.383,-27.658c0.922,-4.609 2.651,-8.412 5.186,-11.409c2.535,-2.996 5.877,-4.494 10.026,-4.494l13.138,-0c3.687,-0 6.684,0.807 8.989,2.42c2.304,1.613 3.687,5.647 4.148,12.1c0,5.532 1.038,11.87 3.112,19.015c2.074,7.145 6.108,14.06 12.1,20.744c5.993,6.684 14.406,12.216 25.238,16.595c10.833,4.379 25.238,6.569 43.216,6.569Zm186.001,-316.686c2.305,-14.29 2.997,-28.58 2.075,-42.87c-0.922,-14.29 -4.495,-27.313 -10.718,-39.067c-6.223,-11.755 -15.327,-21.32 -27.312,-28.696c-11.985,-7.375 -27.889,-11.063 -47.711,-11.063c-18.899,0 -35.955,3.573 -51.167,10.718c-15.212,7.145 -28.58,16.594 -40.104,28.349c-11.525,11.755 -21.205,25.238 -29.042,40.45c-7.836,15.212 -14.059,31.116 -18.669,47.71c-1.844,6.915 -3.457,13.369 -4.84,19.361c-1.383,5.993 -2.535,12.446 -3.457,19.361c-2.766,16.595 -4.034,32.613 -3.803,48.056c0.23,15.442 2.996,29.041 8.297,40.796c5.301,11.754 13.714,21.089 25.238,28.004c11.525,6.914 27.197,10.371 47.019,10.371c19.361,0 37.108,-3.687 53.242,-11.063c16.134,-7.375 30.309,-16.94 42.524,-28.695c12.216,-11.755 22.357,-24.777 30.424,-39.067c8.067,-14.29 13.945,-28.58 17.633,-42.87c1.843,-6.915 3.803,-15.212 5.877,-24.893c2.074,-9.68 3.572,-17.978 4.494,-24.892Z"/>
        <path d="M3162.98,1587.53c5.992,-23.509 14.751,-45.06 26.275,-64.651c11.524,-19.591 25.238,-36.301 41.141,-50.13c15.904,-13.829 33.536,-24.662 52.897,-32.499c19.36,-7.836 39.873,-11.754 61.539,-11.754c49.785,-0 84.818,15.903 105.101,47.71c20.283,31.807 24.892,75.368 13.829,130.685l-2.074,10.372c-0.922,4.609 -3.227,8.297 -6.915,11.063c-3.688,2.766 -7.836,4.149 -12.446,4.149l-246.158,-0c-3.226,17.055 -4.609,33.42 -4.148,49.093c0.461,15.673 3.457,29.387 8.989,41.141c5.531,11.755 14.174,21.205 25.929,28.35c11.755,7.145 27.313,10.717 46.673,10.717c17.978,0 33.421,-1.843 46.328,-5.531c12.907,-3.688 23.624,-7.952 32.152,-12.792c8.528,-4.84 15.327,-9.796 20.398,-14.866c5.071,-5.071 8.989,-8.989 11.755,-11.755c5.071,-5.993 8.873,-9.565 11.409,-10.718c2.535,-1.152 6.338,-1.728 11.409,-1.728l11.063,-0c4.149,-0 7.491,1.267 10.026,3.803c2.535,2.535 3.112,5.877 1.729,10.026c-1.844,6.453 -6.223,14.52 -13.138,24.201c-6.914,9.68 -16.825,18.899 -29.732,27.658c-12.907,8.758 -28.696,16.249 -47.365,22.472c-18.669,6.223 -40.68,9.335 -66.034,9.335c-20.743,-0 -39.528,-3.919 -56.353,-11.755c-16.826,-7.836 -30.655,-18.669 -41.487,-32.498c-10.833,-13.829 -18.554,-30.54 -23.164,-50.131c-4.61,-19.591 -5.071,-41.141 -1.383,-64.651c0.922,-6.914 2.65,-16.134 5.186,-27.658c2.535,-11.524 4.725,-20.743 6.569,-27.658Zm261.369,6.223c4.149,-17.517 5.762,-33.881 4.84,-49.093c-0.922,-15.212 -4.609,-28.465 -11.063,-39.759c-6.453,-11.293 -15.788,-20.167 -28.004,-26.621c-12.215,-6.453 -27.312,-9.68 -45.29,-9.68c-17.517,0 -33.881,3.227 -49.093,9.68c-15.212,6.454 -29.041,15.443 -41.487,26.967c-12.447,11.524 -22.934,24.892 -31.462,40.104c-8.528,15.212 -14.635,31.346 -18.323,48.402l219.882,0Z"/>
        <path d="M3622.11,1483.12c10.602,-16.134 24.777,-28.12 42.524,-35.956c17.748,-7.837 38.376,-11.755 61.885,-11.755l25.584,0c10.142,0 14.06,5.071 11.755,15.212l-2.074,9.681c-0.922,4.609 -2.997,8.297 -6.223,11.063c-3.227,2.766 -7.146,4.149 -11.755,4.149l-29.733,-0c-27.658,-0 -51.283,8.066 -70.874,24.2c-19.591,16.134 -32.383,38.03 -38.375,65.689l-45.636,214.35c-2.305,10.142 -8.528,15.212 -18.67,15.212l-11.063,0c-4.61,0 -8.067,-1.383 -10.372,-4.149c-2.305,-2.765 -2.996,-6.453 -2.074,-11.063l69.837,-328.44c0.922,-4.61 3.111,-8.413 6.569,-11.409c3.457,-2.997 7.49,-4.495 12.1,-4.495l11.063,0c4.61,0 8.067,1.498 10.372,4.495c2.305,2.996 2.996,6.799 2.074,11.409l-6.914,31.807Z"/>
    </g>
    <g>
        <path d="M264.1,1092.13l1809.61,0l128.088,0.967l1733.33,-0" style="fill:none;stroke:#b480ff;stroke-width:16.79px;"/>
        <circle id="ball" cx="244.363" cy="1092.75" r="46.162" style="fill:#ff00a8;stroke:#fff;stroke-width:6.71px;"/>
        <circle id="ball1" serif:id="ball" cx="3920.8" cy="1092.35" r="46.162" style="fill:#ff00a8;stroke:#fff;stroke-width:6.71px;"/>
    </g>
</svg>