<?xml version="1.0" encoding="UTF-8" standalone="no"?><!DOCTYPE svg PUBLIC "-//W3C//DTD SVG 1.1//EN" "http://www.w3.org/Graphics/SVG/1.1/DTD/svg11.dtd"><svg width="100%" height="100%" viewBox="0 0 1000 500" version="1.1" xmlns="http://www.w3.org/2000/svg" xmlns:xlink="http://www.w3.org/1999/xlink" xml:space="preserve" xmlns:serif="http://www.serif.com/" style="fill-rule:evenodd;clip-rule:evenodd;stroke-linecap:round;stroke-linejoin:round;stroke-miterlimit:1.5;"><rect id="Artboard1" x="0" y="0" width="1000" height="500" style="fill:none;"/><g><path d="M91.358,204.643l0,-176.191l93.13,0c4.363,0 8.39,1.678 12.081,5.034l24.164,20.136c4.027,3.356 6.041,6.712 6.041,10.068l-0,105.715c-0,3.356 -2.014,6.712 -6.041,10.068l-24.164,20.136c-3.691,3.356 -7.718,5.034 -12.081,5.034l-93.13,0Zm114.273,-42.789l-0,-90.613c-0,-3.356 -2.014,-6.712 -6.041,-10.068l-12.082,-10.068c-3.691,-3.356 -7.719,-5.034 -12.081,-5.034l-62.926,0l0,140.953l62.926,0c4.362,0 8.39,-1.678 12.081,-5.034l12.082,-10.068c4.027,-3.356 6.041,-6.712 6.041,-10.068Z" style="fill:#fff;fill-rule:nonzero;"/><path d="M355.393,181.99l15.102,12.585l-6.041,5.034c-3.02,2.517 -5.076,3.985 -6.166,4.405c-1.091,0.419 -3.147,0.629 -6.167,0.629l-67.204,0c-4.028,0 -8.055,-1.678 -12.082,-5.034l-6.041,-5.034c-4.027,-3.356 -6.041,-7.551 -6.041,-12.585l0,-80.544c0,-5.034 2.014,-9.23 6.041,-12.586l6.041,-5.034c4.027,-3.356 8.054,-5.034 12.082,-5.034l58.646,0c3.356,0 7.383,1.678 12.082,5.034l6.292,5.034c4.028,3.021 6.041,7.216 6.041,12.586l0,51.598l-86.082,0l0,23.66c0,2.517 0.126,4.153 0.378,4.908c0.252,0.756 1.132,1.72 2.643,2.895c1.51,1.175 2.684,1.888 3.523,2.139c0.84,0.252 2.769,0.378 5.79,0.378l48.83,0c3.02,0 5.076,-0.21 6.166,-0.629c1.091,-0.42 3.147,-1.888 6.167,-4.405Zm-8.558,-45.306l0,-29.953c0,-2.517 -0.126,-4.153 -0.377,-4.908c-0.252,-0.755 -1.133,-1.72 -2.643,-2.894c-1.51,-1.175 -2.685,-1.888 -3.524,-2.14c-0.839,-0.252 -2.769,-0.377 -5.789,-0.377l-40.272,-0c-3.021,-0 -4.95,0.125 -5.79,0.377c-0.839,0.252 -2.013,0.965 -3.523,2.14c-1.511,1.174 -2.391,2.139 -2.643,2.894c-0.252,0.755 -0.378,2.391 -0.378,4.908l0,29.953l64.939,-0Z" style="fill:#fff;fill-rule:nonzero;"/><path d="M537.625,61.173l-21.143,0l-0,-4.782c-0,-2.517 -0.126,-4.153 -0.378,-4.908c-0.251,-0.755 -1.132,-1.72 -2.642,-2.895c-1.511,-1.174 -2.685,-1.888 -3.524,-2.139c-0.839,-0.252 -2.769,-0.378 -5.789,-0.378l-62.422,0c-3.021,0 -4.95,0.126 -5.789,0.378c-0.839,0.251 -2.014,0.965 -3.524,2.139c-1.51,1.175 -2.391,2.14 -2.643,2.895c-0.252,0.755 -0.378,2.391 -0.378,4.908l0,120.313c0,2.517 0.126,4.153 0.378,4.908c0.252,0.756 1.133,1.72 2.643,2.895c1.51,1.175 2.685,1.888 3.524,2.139c0.839,0.252 2.768,0.378 5.789,0.378l62.422,0c3.02,0 4.95,-0.126 5.789,-0.378c0.839,-0.251 2.013,-0.964 3.524,-2.139c1.51,-1.175 2.391,-2.139 2.642,-2.895c0.252,-0.755 0.378,-2.391 0.378,-4.908l-0,-4.782l21.143,-0l-0,10.068c-0,5.034 -2.014,9.229 -6.041,12.585l-6.041,5.034c-4.027,3.356 -8.054,5.034 -12.081,5.034l-81.048,0c-4.028,0 -8.055,-1.678 -12.082,-5.034l-6.041,-5.034c-4.027,-3.356 -6.041,-7.551 -6.041,-12.585l0,-130.885c0,-5.034 2.014,-9.229 6.041,-12.585l6.041,-5.034c4.027,-3.356 8.054,-5.034 12.082,-5.034l81.048,0c4.027,0 8.054,1.678 12.081,5.034l6.041,5.034c4.027,3.356 6.041,7.551 6.041,12.585l-0,10.068Z" style="fill:#fff;fill-rule:nonzero;"/><path d="M659.7,181.99l15.102,12.585l-6.041,5.034c-3.02,2.517 -5.076,3.985 -6.166,4.405c-1.091,0.419 -3.147,0.629 -6.167,0.629l-67.204,0c-4.028,0 -8.055,-1.678 -12.082,-5.034l-6.041,-5.034c-4.027,-3.356 -6.041,-7.551 -6.041,-12.585l0,-80.544c0,-5.034 2.014,-9.23 6.041,-12.586l6.041,-5.034c4.027,-3.356 8.054,-5.034 12.082,-5.034l58.646,0c3.356,0 7.383,1.678 12.082,5.034l6.292,5.034c4.028,3.021 6.041,7.216 6.041,12.586l0,51.598l-86.082,0l0,23.66c0,2.517 0.126,4.153 0.378,4.908c0.252,0.756 1.132,1.72 2.643,2.895c1.51,1.175 2.685,1.888 3.524,2.139c0.839,0.252 2.768,0.378 5.789,0.378l48.83,0c3.02,0 5.076,-0.21 6.166,-0.629c1.091,-0.42 3.147,-1.888 6.167,-4.405Zm-8.558,-45.306l0,-29.953c0,-2.517 -0.126,-4.153 -0.377,-4.908c-0.252,-0.755 -1.133,-1.72 -2.643,-2.894c-1.51,-1.175 -2.685,-1.888 -3.524,-2.14c-0.839,-0.252 -2.769,-0.377 -5.789,-0.377l-40.272,-0c-3.021,-0 -4.95,0.125 -5.789,0.377c-0.839,0.252 -2.014,0.965 -3.524,2.14c-1.511,1.174 -2.391,2.139 -2.643,2.894c-0.252,0.755 -0.378,2.391 -0.378,4.908l0,29.953l64.939,-0Z" style="fill:#fff;fill-rule:nonzero;"/><path d="M702.489,78.792l8.81,0c3.02,0 5.076,0.21 6.167,0.63c1.09,0.419 2.642,1.468 4.656,3.146c2.685,2.181 4.027,4.279 4.027,6.292l1.007,0c0,-2.013 1.846,-4.111 5.538,-6.292c3.02,-1.846 5.075,-2.937 6.166,-3.272c1.091,-0.336 3.146,-0.504 6.167,-0.504l44.551,0c4.027,0 8.054,1.678 12.082,5.034l6.041,5.034c4.027,3.356 6.04,7.552 6.04,12.586l0,103.197l-21.143,0l0,-97.912c0,-2.517 -0.125,-4.153 -0.377,-4.908c-0.252,-0.755 -1.133,-1.72 -2.643,-2.894c-1.51,-1.175 -2.685,-1.888 -3.524,-2.14c-0.839,-0.252 -2.769,-0.377 -5.789,-0.377l-32.218,-0c-3.02,-0 -5.076,0.167 -6.166,0.503c-1.091,0.336 -3.147,1.426 -6.167,3.272c-3.02,1.846 -4.782,3.188 -5.286,4.027c-0.503,0.839 -0.755,2.517 -0.755,5.034l0,95.395l-21.143,0l0,-97.912c0,-2.517 -0.126,-4.153 -0.377,-4.908c-0.252,-0.755 -1.133,-1.72 -2.643,-2.894c-1.51,-1.175 -2.391,-2.14 -2.643,-2.895c-0.252,-0.755 -0.378,-2.391 -0.378,-4.908l0,-12.334Z" style="fill:#fff;fill-rule:nonzero;"/><path d="M872.891,43.554l0,35.238l32.218,0c2.181,1.678 3.482,2.979 3.901,3.902c0.42,0.923 0.63,3.314 0.63,7.173l-0,6.545l-36.749,-0l0,80.292c0,2.517 0.126,4.153 0.378,4.908c0.251,0.756 1.132,1.72 2.643,2.895c1.51,1.175 2.684,1.888 3.523,2.139c0.839,0.252 2.769,0.378 5.79,0.378l22.904,0c2.182,1.678 3.482,2.978 3.902,3.901c0.419,0.923 0.629,3.314 0.629,7.174l0,6.544l-36.748,0c-4.028,0 -8.055,-1.678 -12.082,-5.034l-6.041,-5.034c-4.027,-3.356 -6.041,-7.551 -6.041,-12.585l0,-85.578l-12.081,-0c-2.182,-1.678 -3.482,-2.979 -3.902,-3.902c-0.419,-0.923 -0.629,-3.314 -0.629,-7.173l-0,-6.545l16.612,0l0,-35.238l21.143,0Z" style="fill:#fff;fill-rule:nonzero;"/></g><g><path d="M94.483,331.72l-0.503,0.168c0.783,2.685 1.174,5.37 1.174,8.054l0,99.171l-14.095,-0l0,-117.461l22.821,0l35.909,93.801c0.672,1.902 1.007,3.468 1.007,4.698l0.671,0c0,-1.23 0.336,-2.796 1.007,-4.698l36.077,-93.801l22.654,0l-0,117.461l-14.096,-0l0,-99.171c0,-2.684 0.392,-5.369 1.175,-8.054l-0.503,-0.168l-41.279,107.393l-10.74,-0c-5.146,-12.641 -10.04,-24.891 -14.682,-36.749c-4.643,-11.858 -8.474,-21.786 -11.495,-29.784c-3.02,-7.999 -5.649,-15.046 -7.886,-21.143c-2.238,-6.097 -3.972,-10.823 -5.202,-14.179c-1.231,-3.356 -1.902,-5.202 -2.014,-5.538Z" style="fill:#fff;fill-rule:nonzero;"/><path d="M291.146,424.011l10.068,8.39l-4.027,3.356c-2.014,1.678 -3.384,2.657 -4.111,2.936c-0.728,0.28 -2.098,0.42 -4.111,0.42l-44.803,-0c-2.685,-0 -5.37,-1.119 -8.055,-3.356l-4.027,-3.356c-2.685,-2.238 -4.027,-5.034 -4.027,-8.39l-0,-53.697c-0,-3.356 1.342,-6.152 4.027,-8.39l4.027,-3.356c2.685,-2.237 5.37,-3.356 8.055,-3.356l39.097,0c2.238,0 4.922,1.119 8.055,3.356l4.195,3.356c2.685,2.014 4.027,4.811 4.027,8.39l-0,34.4l-57.388,-0l0,15.773c0,1.678 0.084,2.769 0.252,3.272c0.168,0.503 0.755,1.147 1.762,1.93c1.006,0.783 1.79,1.258 2.349,1.426c0.559,0.168 1.846,0.252 3.859,0.252l32.554,-0c2.013,-0 3.384,-0.14 4.111,-0.42c0.727,-0.279 2.097,-1.258 4.111,-2.936Zm-5.705,-30.205l-0,-19.968c-0,-1.678 -0.084,-2.769 -0.252,-3.272c-0.168,-0.503 -0.755,-1.147 -1.762,-1.93c-1.007,-0.783 -1.79,-1.258 -2.349,-1.426c-0.559,-0.168 -1.846,-0.252 -3.86,-0.252l-26.848,0c-2.013,0 -3.3,0.084 -3.859,0.252c-0.559,0.168 -1.343,0.643 -2.349,1.426c-1.007,0.783 -1.594,1.427 -1.762,1.93c-0.168,0.503 -0.252,1.594 -0.252,3.272l0,19.968l43.293,0Z" style="fill:#fff;fill-rule:nonzero;"/><path d="M373.033,390.45c2.685,0 5.369,1.119 8.054,3.356l4.027,3.357c2.685,2.237 4.028,5.034 4.028,8.39l-0,18.458c-0,3.356 -1.343,6.152 -4.028,8.39l-4.027,3.356c-2.685,2.237 -5.369,3.356 -8.054,3.356l-37.252,-0c-2.685,-0 -5.37,-1.119 -8.054,-3.356l-4.028,-3.356c-2.685,-2.238 -4.027,-5.034 -4.027,-8.39l0,-6.712l14.095,-0l0,3.188c0,1.678 0.084,2.769 0.252,3.272c0.168,0.503 0.755,1.147 1.762,1.93c1.007,0.783 1.79,1.258 2.349,1.426c0.56,0.168 1.846,0.252 3.86,0.252l24.834,-0c2.014,-0 3.3,-0.084 3.86,-0.252c0.559,-0.168 1.342,-0.643 2.349,-1.426c1.007,-0.783 1.594,-1.427 1.762,-1.93c0.167,-0.503 0.251,-1.594 0.251,-3.272l0,-13.592c-0.111,-0.895 -0.783,-1.902 -2.013,-3.02c-1.007,-0.784 -1.79,-1.259 -2.349,-1.427c-0.56,-0.168 -1.846,-0.251 -3.86,-0.251l-29.365,-0c-2.685,-0 -5.37,-1.119 -8.054,-3.356l-4.028,-3.357c-2.684,-2.237 -4.027,-5.034 -4.027,-8.39l0,-16.78c0,-3.356 1.343,-6.152 4.027,-8.39l4.028,-3.356c2.684,-2.237 5.369,-3.356 8.054,-3.356l35.574,0c2.685,0 5.369,1.119 8.054,3.356l4.027,3.356c2.685,2.238 4.028,5.034 4.028,8.39l-0,6.712l-14.096,0l0,-3.188c0,-1.678 -0.084,-2.769 -0.251,-3.272c-0.168,-0.503 -0.755,-1.147 -1.762,-1.93c-1.007,-0.783 -1.79,-1.258 -2.349,-1.426c-0.56,-0.168 -1.846,-0.252 -3.86,-0.252l-23.156,0c-2.014,0 -3.3,0.084 -3.86,0.252c-0.559,0.168 -1.342,0.643 -2.349,1.426c-1.007,0.783 -1.594,1.427 -1.762,1.93c-0.168,0.503 -0.252,1.594 -0.252,3.272l0,9.733c0,1.678 0.084,2.768 0.252,3.272c0.168,0.503 0.755,1.146 1.762,1.929c1.007,0.784 1.79,1.259 2.349,1.427c0.56,0.168 1.846,0.251 3.86,0.251l29.365,0Z" style="fill:#fff;fill-rule:nonzero;"/><path d="M462.638,390.45c2.685,0 5.37,1.119 8.055,3.356l4.027,3.357c2.685,2.237 4.027,5.034 4.027,8.39l0,18.458c0,3.356 -1.342,6.152 -4.027,8.39l-4.027,3.356c-2.685,2.237 -5.37,3.356 -8.055,3.356l-37.251,-0c-2.685,-0 -5.37,-1.119 -8.055,-3.356l-4.027,-3.356c-2.685,-2.238 -4.027,-5.034 -4.027,-8.39l-0,-6.712l14.095,-0l0,3.188c0,1.678 0.084,2.769 0.252,3.272c0.168,0.503 0.755,1.147 1.762,1.93c1.006,0.783 1.79,1.258 2.349,1.426c0.559,0.168 1.846,0.252 3.859,0.252l24.835,-0c2.013,-0 3.3,-0.084 3.859,-0.252c0.56,-0.168 1.343,-0.643 2.349,-1.426c1.007,-0.783 1.595,-1.427 1.762,-1.93c0.168,-0.503 0.252,-1.594 0.252,-3.272l0,-13.592c-0.112,-0.895 -0.783,-1.902 -2.014,-3.02c-1.006,-0.784 -1.789,-1.259 -2.349,-1.427c-0.559,-0.168 -1.846,-0.251 -3.859,-0.251l-29.365,-0c-2.685,-0 -5.37,-1.119 -8.055,-3.356l-4.027,-3.357c-2.685,-2.237 -4.027,-5.034 -4.027,-8.39l-0,-16.78c-0,-3.356 1.342,-6.152 4.027,-8.39l4.027,-3.356c2.685,-2.237 5.37,-3.356 8.055,-3.356l35.573,0c2.685,0 5.37,1.119 8.055,3.356l4.027,3.356c2.685,2.238 4.027,5.034 4.027,8.39l0,6.712l-14.095,0l0,-3.188c0,-1.678 -0.084,-2.769 -0.252,-3.272c-0.167,-0.503 -0.755,-1.147 -1.762,-1.93c-1.006,-0.783 -1.789,-1.258 -2.349,-1.426c-0.559,-0.168 -1.846,-0.252 -3.859,-0.252l-23.157,0c-2.013,0 -3.3,0.084 -3.859,0.252c-0.559,0.168 -1.343,0.643 -2.349,1.426c-1.007,0.783 -1.594,1.427 -1.762,1.93c-0.168,0.503 -0.252,1.594 -0.252,3.272l0,9.733c0,1.678 0.084,2.768 0.252,3.272c0.168,0.503 0.755,1.146 1.762,1.929c1.006,0.784 1.79,1.259 2.349,1.427c0.559,0.168 1.846,0.251 3.859,0.251l29.365,0Z" style="fill:#fff;fill-rule:nonzero;"/><path d="M561.977,424.011l10.068,8.39l-4.028,3.356c-2.013,1.678 -3.383,2.657 -4.111,2.936c-0.727,0.28 -2.097,0.42 -4.111,0.42l-44.803,-0c-2.684,-0 -5.369,-1.119 -8.054,-3.356l-4.027,-3.356c-2.685,-2.238 -4.028,-5.034 -4.028,-8.39l0,-53.697c0,-3.356 1.343,-6.152 4.028,-8.39l4.027,-3.356c2.685,-2.237 5.37,-3.356 8.054,-3.356l39.098,0c2.237,0 4.922,1.119 8.054,3.356l4.195,3.356c2.685,2.014 4.028,4.811 4.028,8.39l-0,34.4l-57.388,-0l-0,15.773c-0,1.678 0.084,2.769 0.251,3.272c0.168,0.503 0.756,1.147 1.762,1.93c1.007,0.783 1.79,1.258 2.35,1.426c0.559,0.168 1.845,0.252 3.859,0.252l32.553,-0c2.014,-0 3.384,-0.14 4.112,-0.42c0.727,-0.279 2.097,-1.258 4.111,-2.936Zm-5.706,-30.205l0,-19.968c0,-1.678 -0.083,-2.769 -0.251,-3.272c-0.168,-0.503 -0.755,-1.147 -1.762,-1.93c-1.007,-0.783 -1.79,-1.258 -2.349,-1.426c-0.56,-0.168 -1.846,-0.252 -3.86,-0.252l-26.848,0c-2.014,0 -3.3,0.084 -3.859,0.252c-0.56,0.168 -1.343,0.643 -2.35,1.426c-1.006,0.783 -1.594,1.427 -1.762,1.93c-0.167,0.503 -0.251,1.594 -0.251,3.272l-0,19.968l43.292,0Z" style="fill:#fff;fill-rule:nonzero;"/><path d="M590.503,355.212l5.873,0c2.013,0 3.384,0.14 4.111,0.42c0.727,0.279 1.762,0.979 3.104,2.097c1.79,1.455 2.685,2.853 2.685,4.195l0.671,0c0,-1.342 1.231,-2.74 3.692,-4.195c2.014,-1.23 3.384,-1.957 4.111,-2.181c0.727,-0.224 2.098,-0.336 4.111,-0.336l29.701,0c2.685,0 5.37,1.119 8.054,3.356l4.028,3.356c2.684,2.238 4.027,5.034 4.027,8.39l-0,68.799l-14.095,-0l-0,-65.275c-0,-1.678 -0.084,-2.769 -0.252,-3.272c-0.168,-0.503 -0.755,-1.147 -1.762,-1.93c-1.007,-0.783 -1.79,-1.258 -2.349,-1.426c-0.56,-0.168 -1.846,-0.252 -3.86,-0.252l-21.478,0c-2.014,0 -3.384,0.112 -4.111,0.336c-0.727,0.224 -2.098,0.951 -4.111,2.181c-2.014,1.231 -3.189,2.126 -3.524,2.685c-0.336,0.559 -0.504,1.678 -0.504,3.356l0,63.597l-14.095,-0l0,-65.275c0,-1.678 -0.084,-2.769 -0.252,-3.272c-0.167,-0.503 -0.755,-1.147 -1.762,-1.93c-1.006,-0.783 -1.594,-1.426 -1.761,-1.929c-0.168,-0.504 -0.252,-1.594 -0.252,-3.272l-0,-8.223Z" style="fill:#fff;fill-rule:nonzero;"/><path d="M707.124,427.367l23.996,-0c2.685,-0 5.37,-1.119 8.054,-3.356c2.685,-2.238 4.028,-4.475 4.028,-6.712l-0,-41.783c-0,-1.678 -0.168,-2.797 -0.504,-3.356c-0.335,-0.559 -1.51,-1.454 -3.524,-2.685c-2.013,-1.23 -3.384,-1.957 -4.111,-2.181c-0.727,-0.224 -2.097,-0.336 -4.111,-0.336l-23.828,0c-2.013,0 -3.3,0.084 -3.859,0.252c-0.559,0.168 -1.342,0.643 -2.349,1.426c-1.007,0.783 -1.594,1.427 -1.762,1.93c-0.168,0.503 -0.252,1.594 -0.252,3.272l0,46.649c0,1.678 0.084,2.769 0.252,3.272c0.168,0.503 0.755,1.147 1.762,1.93c1.007,0.783 1.79,1.258 2.349,1.426c0.559,0.168 1.846,0.252 3.859,0.252Zm-11.913,43.628l39.768,-0c2.014,-0 3.301,-0.084 3.86,-0.252c0.559,-0.168 1.342,-0.643 2.349,-1.426c1.007,-0.783 1.594,-1.426 1.762,-1.93c0.168,-0.503 0.252,-1.594 0.252,-3.272l-0,-33.057l-0.672,0c-0.223,1.007 -1.566,2.573 -4.027,4.699c-2.685,2.237 -5.369,3.356 -8.054,3.356l-29.533,-0c-2.685,-0 -5.37,-1.119 -8.055,-3.356l-4.027,-3.356c-2.685,-2.238 -4.027,-5.034 -4.027,-8.39l-0,-53.697c-0,-3.356 1.342,-6.152 4.027,-8.39l4.027,-3.356c2.685,-2.237 5.37,-3.356 8.055,-3.356l32.05,0c2.013,0 3.384,0.112 4.111,0.336c0.727,0.224 2.097,0.951 4.111,2.181c2.461,1.455 3.692,2.853 3.692,4.195l0.671,0c-0,-1.342 0.895,-2.74 2.685,-4.195c1.342,-1.118 2.377,-1.818 3.104,-2.097c0.727,-0.28 2.098,-0.42 4.111,-0.42l5.873,0l0,8.223c0,1.678 -0.084,2.768 -0.252,3.272c-0.167,0.503 -0.755,1.146 -1.761,1.929c-1.007,0.783 -1.595,1.427 -1.762,1.93c-0.168,0.503 -0.252,1.594 -0.252,3.272l-0,93.801c-0,3.356 -1.342,6.153 -4.027,8.39l-4.027,3.356c-2.685,2.237 -5.37,3.356 -8.055,3.356l-48.998,-0l0,-4.363c0,-2.573 0.14,-4.167 0.42,-4.782c0.279,-0.615 1.146,-1.482 2.601,-2.601Z" style="fill:#fff;fill-rule:nonzero;"/><path d="M844.553,424.011l10.069,8.39l-4.028,3.356c-2.013,1.678 -3.384,2.657 -4.111,2.936c-0.727,0.28 -2.097,0.42 -4.111,0.42l-44.803,-0c-2.685,-0 -5.369,-1.119 -8.054,-3.356l-4.027,-3.356c-2.685,-2.238 -4.028,-5.034 -4.028,-8.39l0,-53.697c0,-3.356 1.343,-6.152 4.028,-8.39l4.027,-3.356c2.685,-2.237 5.369,-3.356 8.054,-3.356l39.098,0c2.237,0 4.922,1.119 8.054,3.356l4.195,3.356c2.685,2.014 4.028,4.811 4.028,8.39l-0,34.4l-57.388,-0l-0,15.773c-0,1.678 0.083,2.769 0.251,3.272c0.168,0.503 0.755,1.147 1.762,1.93c1.007,0.783 1.79,1.258 2.349,1.426c0.56,0.168 1.846,0.252 3.86,0.252l32.553,-0c2.014,-0 3.384,-0.14 4.111,-0.42c0.727,-0.279 2.098,-1.258 4.111,-2.936Zm-5.705,-30.205l0,-19.968c0,-1.678 -0.084,-2.769 -0.251,-3.272c-0.168,-0.503 -0.756,-1.147 -1.762,-1.93c-1.007,-0.783 -1.79,-1.258 -2.35,-1.426c-0.559,-0.168 -1.845,-0.252 -3.859,-0.252l-26.848,0c-2.014,0 -3.3,0.084 -3.86,0.252c-0.559,0.168 -1.342,0.643 -2.349,1.426c-1.007,0.783 -1.594,1.427 -1.762,1.93c-0.168,0.503 -0.251,1.594 -0.251,3.272l-0,19.968l43.292,0Z" style="fill:#fff;fill-rule:nonzero;"/><path d="M873.08,355.212l5.873,0c2.013,0 3.384,0.14 4.111,0.42c0.727,0.279 1.762,0.979 3.104,2.097c1.79,1.455 2.685,2.853 2.685,4.195l0.671,0c0,-1.342 1.231,-2.74 3.692,-4.195c2.013,-1.23 3.384,-1.957 4.111,-2.181c0.727,-0.224 2.097,-0.336 4.111,-0.336l15.438,0c2.684,0 5.369,1.119 8.054,3.356l4.027,3.356l-10.068,8.39l-2.013,-1.678c-1.007,-0.783 -1.79,-1.258 -2.35,-1.426c-0.559,-0.168 -1.845,-0.252 -3.859,-0.252l-7.215,0c-2.014,0 -3.384,0.112 -4.112,0.336c-0.727,0.224 -2.097,0.951 -4.111,2.181c-2.013,1.231 -3.188,2.126 -3.523,2.685c-0.336,0.559 -0.504,1.678 -0.504,3.356l0,63.597l-14.095,-0l-0,-65.275c-0,-1.678 -0.084,-2.769 -0.252,-3.272c-0.168,-0.503 -0.755,-1.147 -1.762,-1.93c-1.007,-0.783 -1.594,-1.426 -1.762,-1.929c-0.167,-0.504 -0.251,-1.594 -0.251,-3.272l-0,-8.223Z" style="fill:#fff;fill-rule:nonzero;"/></g><path d="M64.384,278.111l434.306,0l30.741,0.232l416,0" style="fill:none;stroke:#b480ff;stroke-width:4.03px;"/><circle id="ball" cx="59.647" cy="278.26" r="11.079" style="fill:#ff00a8;stroke:#fff;stroke-width:1.61px;"/><circle id="ball1" serif:id="ball" cx="941.993" cy="278.164" r="11.079" style="fill:#ff00a8;stroke:#fff;stroke-width:1.61px;"/></svg>